<?xml version="1.0" standalone="no"?>
<!DOCTYPE svg PUBLIC "-//W3C//DTD SVG 20010904//EN"
 "http://www.w3.org/TR/2001/REC-SVG-20010904/DTD/svg10.dtd">
<svg version="1.0" xmlns="http://www.w3.org/2000/svg"
 width="200.000000pt" height="200.000000pt" viewBox="0 0 200.000000 200.000000"
 preserveAspectRatio="xMidYMid meet">
<metadata>
Created by potrace 1.16, written by Peter Selinger 2001-2019
</metadata>
<g transform="translate(0.000000,200.000000) scale(0.100000,-0.100000)"
fill="#000000" stroke="none">
<path d="M1043 1366 c-50 -16 -124 -58 -143 -81 -11 -13 -9 -20 15 -45 l28
-29 27 23 c15 12 41 28 59 35 17 8 31 18 31 23 0 5 4 6 10 3 5 -3 7 0 5 8 -7
17 30 51 46 41 8 -4 10 -3 5 4 -10 17 29 15 64 -3 16 -9 33 -27 36 -40 3 -14
12 -25 19 -25 7 0 35 -15 63 -34 l50 -35 27 29 28 29 -24 21 c-13 12 -53 35
-88 52 -76 37 -187 47 -258 24z"/>
<path d="M667 1352 c-15 -16 -17 -47 -17 -228 0 -166 3 -214 14 -230 12 -16
29 -19 120 -22 111 -4 149 -22 46 -22 l-60 0 0 -30 c0 -28 3 -30 37 -30 29 0
34 -3 25 -12 -7 -7 -12 -42 -12 -85 0 -58 3 -73 15 -73 11 0 15 12 15 50 0 47
2 50 25 50 34 0 32 28 -2 33 l-28 4 28 2 c17 0 27 7 27 16 0 8 6 15 14 15 11
0 15 20 18 90 l3 90 -107 0 -108 0 0 165 0 165 90 0 c89 0 90 0 105 30 8 16
15 31 15 35 0 3 -56 5 -123 5 -107 0 -126 -2 -140 -18z"/>
<path d="M1212 990 c-27 -16 -50 -20 -130 -20 l-97 0 3 -90 3 -90 80 0 79 0 0
30 0 30 -60 0 c-33 0 -60 4 -60 10 0 6 38 10 95 10 88 0 98 2 120 25 19 18 25
35 25 70 0 51 -8 55 -58 25z"/>
<path d="M914 736 c-3 -7 -4 -35 -2 -62 l3 -49 60 0 60 0 3 48 c2 27 -2 55 -9
63 -15 19 -108 19 -115 0z"/>
<path d="M1057 743 c-11 -10 -8 -123 3 -123 6 0 10 23 10 50 l0 50 40 0 40 0
0 -50 c0 -38 4 -50 15 -50 11 0 15 12 15 50 0 49 1 50 30 50 29 0 30 -1 30
-50 0 -27 5 -50 10 -50 6 0 10 23 10 50 0 49 1 50 30 50 29 0 30 -1 30 -50 0
-36 4 -50 14 -50 8 0 17 6 19 13 4 10 6 10 6 0 1 -9 21 -13 66 -13 l65 0 0 53
c0 29 -5 58 -12 65 -16 16 -128 16 -128 0 0 -9 -3 -9 -12 0 -13 13 -269 18
-281 5z"/>
</g>
</svg>
